<?xml version="1.0" encoding="UTF-8"?><svg xmlns="http://www.w3.org/2000/svg" xmlns:xlink="http://www.w3.org/1999/xlink" height="518.7" preserveAspectRatio="xMidYMid meet" version="1.0" viewBox="-14.8 -8.6 695.0 518.7" width="695.0" zoomAndPan="magnify"><g><g><g><g id="change1_1"><path d="M526 88.5L525.9 149.2 522.4 151.2 522.6 90.5z" fill="#4E4E4E"/></g><linearGradient gradientTransform="matrix(1 0 0 -1 0 500)" gradientUnits="userSpaceOnUse" id="a" x1="522.7" x2="5" xlink:actuate="onLoad" xlink:show="other" xlink:type="simple" xmlns:xlink="http://www.w3.org/1999/xlink" y1="379" y2="379"><stop offset=".356" stop-color="#4b0388"/><stop offset=".4" stop-color="#560e8b"/><stop offset=".477" stop-color="#722a92"/><stop offset=".577" stop-color="#a1589e"/><stop offset=".611" stop-color="#b269a2"/><stop offset=".935" stop-color="#4a0678"/></linearGradient><path d="M514,85.1l-99.3-57.3c-0.9-0.5-1.7-1-2.6-1.5c-0.3-0.2-0.6-0.3-0.9-0.5c-0.6-0.3-1.2-0.6-1.8-0.9 c-0.4-0.2-0.7-0.4-1.1-0.5c-0.5-0.3-1.1-0.6-1.6-0.8c-0.4-0.2-0.8-0.4-1.2-0.6c-0.5-0.3-1-0.5-1.6-0.8c-0.4-0.2-0.8-0.4-1.2-0.6 c-0.5-0.2-1-0.5-1.5-0.7c-0.4-0.2-0.8-0.4-1.3-0.6s-1-0.5-1.5-0.7c-0.4-0.2-0.9-0.4-1.3-0.6c-0.5-0.2-1-0.4-1.6-0.7 c-0.4-0.2-0.9-0.4-1.3-0.5c-0.3-0.1-0.7-0.3-1-0.4c-0.1,0-0.3-0.1-0.4-0.1c-1.3-0.5-2.5-1-3.8-1.4c-0.2-0.1-0.3-0.1-0.5-0.2 c-1.1-0.4-2.3-0.8-3.4-1.2c-0.4-0.1-0.7-0.2-1.1-0.4c-1.2-0.4-2.4-0.8-3.6-1.2c-0.1,0-0.3-0.1-0.4-0.1c-1.3-0.4-2.7-0.8-4-1.2 c-0.1,0-0.3-0.1-0.4-0.1c-0.3-0.1-0.6-0.2-0.8-0.2c-0.7-0.2-1.5-0.4-2.2-0.6c-0.5-0.1-0.9-0.2-1.4-0.4c-0.7-0.2-1.5-0.4-2.2-0.6 c-0.5-0.1-0.9-0.2-1.4-0.3c-0.8-0.2-1.6-0.4-2.4-0.6c-0.4-0.1-0.8-0.2-1.2-0.3c-1.2-0.3-2.4-0.5-3.6-0.8l0,0 c-1.1-0.2-2.3-0.5-3.4-0.7c-0.4-0.1-0.8-0.1-1.2-0.2c-0.8-0.1-1.5-0.3-2.3-0.4c-0.5-0.1-0.9-0.2-1.4-0.2 c-0.7-0.1-1.4-0.2-2.1-0.4c-0.5-0.1-1-0.2-1.5-0.2c-0.7-0.1-1.4-0.2-2-0.3c-0.1,0-0.2,0-0.3,0c-0.5-0.1-0.9-0.1-1.4-0.2 c-0.6-0.1-1.2-0.2-1.8-0.2c-0.6-0.1-1.2-0.1-1.7-0.2c-0.6-0.1-1.2-0.1-1.8-0.2c-0.6-0.1-1.2-0.1-1.8-0.2 c-0.6-0.1-1.2-0.1-1.8-0.2c-0.6-0.1-1.2-0.1-1.8-0.2c-0.6-0.1-1.2-0.1-1.8-0.2c-0.1,0-0.3,0-0.4,0c-0.5,0-0.9-0.1-1.4-0.1 c-0.6,0-1.2-0.1-1.8-0.1c-0.6,0-1.2-0.1-1.8-0.1c-0.6,0-1.2-0.1-1.8-0.1c-0.6,0-1.2-0.1-1.8-0.1c-0.6,0-1.2-0.1-1.8-0.1 c-0.6,0-1.2,0-1.8-0.1c-0.6,0-1.2,0-1.8-0.1c-0.1,0-0.3,0-0.4,0c-0.6,0-1.3,0-1.9,0c-0.4,0-0.8,0-1.1,0c-1.2,0-2.3,0-3.5,0 c-1.4,0-2.7,0-4.1,0c-0.4,0-0.9,0-1.3,0c-0.9,0-1.9,0-2.8,0.1c-0.2,0-0.4,0-0.6,0c-0.3,0-0.6,0-0.9,0c-0.8,0-1.6,0.1-2.3,0.1 c-0.5,0-1.1,0.1-1.6,0.1c-0.8,0-1.6,0.1-2.3,0.1c-0.5,0-1,0.1-1.5,0.1c-0.8,0.1-1.6,0.1-2.5,0.2c-0.5,0-0.9,0.1-1.4,0.1 c-1,0.1-1.9,0.2-2.9,0.3c-0.3,0-0.5,0-0.8,0.1h-0.1c-1.4,0.1-2.8,0.3-4.2,0.5c-0.4,0-0.8,0.1-1.2,0.1c-1.1,0.1-2.1,0.3-3.2,0.4 c-0.4,0.1-0.8,0.1-1.3,0.2c-1.3,0.2-2.5,0.4-3.8,0.6c-0.1,0-0.3,0-0.4,0.1c-1.4,0.2-2.8,0.5-4.1,0.7c-0.1,0-0.3,0-0.4,0.1 c-0.4,0.1-0.8,0.1-1.1,0.2c-0.6,0.1-1.2,0.2-1.8,0.3c-0.5,0.1-1.1,0.2-1.6,0.3c-0.6,0.1-1.2,0.2-1.8,0.4 c-0.5,0.1-1.1,0.2-1.6,0.3c-0.6,0.1-1.2,0.3-1.8,0.4c-0.5,0.1-1.1,0.2-1.6,0.4c-0.6,0.1-1.2,0.3-1.8,0.4 c-0.5,0.1-1.1,0.3-1.6,0.4c-0.6,0.1-1.2,0.3-1.7,0.4c-0.5,0.1-1,0.3-1.6,0.4c-0.6,0.2-1.1,0.3-1.7,0.5c-0.5,0.1-1,0.3-1.6,0.4 c-0.6,0.2-1.1,0.3-1.7,0.5c-0.5,0.2-1,0.3-1.5,0.5c-0.6,0.2-1.1,0.3-1.7,0.5c-0.3,0.1-0.6,0.2-0.9,0.3c-0.3,0.1-0.6,0.2-0.9,0.3 c-0.3,0.1-0.5,0.2-0.8,0.3c-0.9,0.3-1.8,0.6-2.8,0.9l0,0c-0.9,0.3-1.8,0.6-2.7,1c-0.3,0.1-0.5,0.2-0.8,0.3 c-0.7,0.3-1.4,0.5-2.2,0.8c-0.2,0.1-0.4,0.1-0.6,0.2c-0.9,0.3-1.8,0.7-2.6,1c-0.2,0.1-0.4,0.2-0.6,0.2c-0.7,0.3-1.4,0.6-2.1,0.9 c-0.2,0.1-0.5,0.2-0.7,0.3c-0.9,0.4-1.7,0.7-2.6,1.1c-0.8,0.4-1.7,0.8-2.5,1.2c-0.2,0.1-0.5,0.2-0.7,0.3c-0.7,0.3-1.3,0.6-2,1 c-0.2,0.1-0.4,0.2-0.6,0.3c-0.8,0.4-1.6,0.8-2.4,1.2c-0.2,0.1-0.4,0.2-0.5,0.3c-0.6,0.3-1.3,0.7-1.9,1c-0.2,0.1-0.4,0.2-0.7,0.4 c-0.8,0.4-1.6,0.9-2.3,1.3L47.7,120.4c-0.7,0.4-1.4,0.8-2,1.2c-0.1,0.1-0.2,0.1-0.2,0.2c-0.5,0.3-1,0.6-1.4,0.9 c-0.4,0.2-0.7,0.5-1.1,0.7c-0.5,0.3-1,0.6-1.4,0.9c-0.3,0.2-0.7,0.5-1,0.7c-0.5,0.3-1,0.7-1.5,1c-0.3,0.2-0.6,0.4-0.9,0.6 c-0.5,0.4-1.1,0.8-1.6,1.2c-0.2,0.2-0.5,0.3-0.7,0.5c-0.8,0.6-1.5,1.1-2.2,1.7c-0.1,0.1-0.2,0.2-0.3,0.2c-0.6,0.5-1.3,1-1.9,1.5 c-0.2,0.2-0.5,0.4-0.7,0.6c-0.5,0.4-0.9,0.8-1.3,1.1c-0.3,0.2-0.5,0.5-0.8,0.7c-0.4,0.4-0.8,0.7-1.2,1.1l-0.1,0.1 c-0.5,0.5-1,0.9-1.5,1.4c-0.1,0.1-0.2,0.2-0.4,0.4c-0.5,0.4-0.9,0.9-1.3,1.3c-0.1,0.1-0.2,0.2-0.3,0.3c-0.5,0.5-1,1.1-1.5,1.6 c-0.1,0.1-0.2,0.2-0.3,0.4c-0.4,0.5-0.8,0.9-1.2,1.4c-0.1,0.1-0.2,0.2-0.3,0.3c-0.5,0.5-0.9,1.1-1.4,1.6 c-0.1,0.1-0.2,0.2-0.3,0.4c-0.2,0.2-0.4,0.5-0.6,0.7c-0.2,0.3-0.4,0.6-0.7,0.8l-0.1,0.1c-0.4,0.6-0.8,1.1-1.2,1.7 c-0.1,0.1-0.1,0.2-0.2,0.3c-0.4,0.6-0.8,1.1-1.1,1.7c-0.1,0.1-0.1,0.2-0.2,0.3c-0.4,0.6-0.7,1.1-1.1,1.7c0,0.1-0.1,0.2-0.1,0.2 c-0.4,0.6-0.7,1.2-1.1,1.8c-0.4,0.7-0.7,1.3-1.1,2c-0.1,0.2-0.2,0.4-0.3,0.6c-0.2,0.5-0.5,0.9-0.7,1.4c-0.1,0.3-0.2,0.5-0.4,0.8 c-0.2,0.4-0.4,0.8-0.5,1.2c-0.1,0.3-0.2,0.6-0.4,0.9c-0.2,0.4-0.3,0.8-0.5,1.2c0,0,0,0.1-0.1,0.1c-0.1,0.3-0.2,0.6-0.3,0.9 c-0.1,0.3-0.2,0.7-0.4,1c-0.1,0.3-0.2,0.7-0.3,1c-0.1,0.3-0.2,0.7-0.3,1c-0.1,0.3-0.2,0.7-0.3,1c-0.1,0.3-0.2,0.7-0.3,1 c-0.1,0.3-0.2,0.7-0.2,1c-0.1,0.3-0.2,0.7-0.2,1v0.1c-0.1,0.3-0.1,0.6-0.2,0.9c-0.1,0.4-0.1,0.7-0.2,1.1c-0.1,0.3-0.1,0.7-0.1,1 c-0.1,0.4-0.1,0.7-0.1,1.1c0,0.3-0.1,0.7-0.1,1c0,0.4-0.1,0.7-0.1,1.1c0,0.3,0,0.7-0.1,1c0,0.4,0,0.7-0.1,1.1c0,0.1,0,0.1,0,0.2 c0,0.6,0,1.2,0,1.8c-0.1,19.6,0.5,39.3-0.2,58.9c2.1-39.6,41-57.2,71-74.4c39-22.4,78.1-44.6,116.6-67.9 c63.7-38.5,152.8-46.5,219.4-9.9c0.9,0.5,1.7,1,2.6,1.5l99.3,57.3c3,1.7,5.9,3.6,8.6,5.4l0.2-60.7C519.8,88.6,517,86.8,514,85.1z" fill="url(#a)"/><g id="change2_6"><path d="M517.4,83.1c3,1.7,5.9,3.6,8.6,5.4l-3.5,2c-2.7-1.9-5.6-3.7-8.6-5.4l-99.3-57.3 c-27.8-16.1-64.6-25-103.8-25s-76,8.8-103.6,24.9L47.7,120.4c-27.6,16-42.7,37.4-42.6,60.1c0.1,22.7,15.5,44,43.3,60.1 l99.3,57.3c3,1.7,6.1,3.4,9.4,5l-3.5,2c-3.2-1.6-6.3-3.2-9.4-5l-99.3-57.3c-59.4-34.3-59.7-89.9-0.7-124.2l159.5-92.7 c59-34.3,155-34.3,214.4,0L517.4,83.1z" fill="#2B063C"/></g></g></g><linearGradient gradientTransform="matrix(1 0 0 -1 0 500)" gradientUnits="userSpaceOnUse" id="b" x1="136.647" x2="538.364" xlink:actuate="onLoad" xlink:show="other" xlink:type="simple" xmlns:xlink="http://www.w3.org/1999/xlink" y1="160.087" y2="423.358"><stop offset="0" stop-color="#2d0245"/><stop offset="1" stop-color="#ab2292"/></linearGradient><path d="M211.9,425.7L145,384.1 c-11.2-6.5-18.2-20.4-18.3-40.2c0-8.2,0-16.4-0.1-24.6c0-15.5-1.2-31.4,0.1-46.9c1.5-18.3,6.6-36.4,15.2-52.7 c6.2-11.9,13.9-23.3,23.7-32.4c47.5-43.9,119.9-16.8,193.5-54.9c64.1-33.2,66-87.7,102.3-93.4c7.7-1.2,15.6-2.5,23.2-0.4 c2.2,0.6,4.2,1.5,6.2,2.5c3.3,1.7,6.5,3.8,9.7,5.7c12.5,7.2,24.9,14.5,37.4,21.7L211.9,425.7z" fill="url(#b)"/><linearGradient gradientTransform="matrix(1 0 0 -1 0 500)" gradientUnits="userSpaceOnUse" id="c" x1="285.452" x2="536.052" xlink:actuate="onLoad" xlink:show="other" xlink:type="simple" xmlns:xlink="http://www.w3.org/1999/xlink" y1="103.139" y2="497.745"><stop offset=".034" stop-color="#967494"/><stop offset=".407" stop-color="#b59db3"/><stop offset=".808" stop-color="#ead8ea"/><stop offset="1" stop-color="#ffefff"/></linearGradient><path d="M320,488l-113.3-65.5 c-11.2-6.5-24.9-21.5-26.1-41.2c-2.5-43.3-5.1-90.4,9.3-132c23.5-68.2,119.6-48.5,205.3-99.3c57.8-34.2,104.6-92.7,129.9-92.8 c16.4-4,39.2,18.8,58.2,32.3c20.7,14.7,40.8,28.6,62.7,41.4L320,488z" fill="url(#c)"/><linearGradient gradientTransform="matrix(1 0 0 -1 0 500)" gradientUnits="userSpaceOnUse" id="d" x1="690.728" x2="141.056" xlink:actuate="onLoad" xlink:show="other" xlink:type="simple" xmlns:xlink="http://www.w3.org/1999/xlink" y1="281.027" y2="40.187"><stop offset=".017" stop-color="#8831af"/><stop offset=".071" stop-color="#822ca9"/><stop offset=".392" stop-color="#621587"/><stop offset=".657" stop-color="#4e0672"/><stop offset=".834" stop-color="#47016b"/></linearGradient><path d="M335,495.6l-12.6-7.3 c-10.9-6.4-17.7-19.6-17.8-39c0-12.5-0.1-25.1-0.1-37.6c0-12.6-0.9-25.4,0.5-37.9c2-18.2,7.7-36,16.6-52 c9.6-17.2,23.1-32.3,39-43.9c9.6-6.9,20.5-12.4,30.8-18.3c15.2-8.8,30.3-17.5,45.5-26.3c18.6-10.7,37.2-21.5,55.7-32.2 c18.1-10.4,36.2-20.9,54.3-31.3c13.7-7.9,27.4-15.8,41.2-23.8c14.7-8.5,28.6-18.9,46.4-17.5c5.3,0.4,9.9,1.9,14.3,4 c4.3,2,8.4,4.5,12.7,7L335,495.6z" fill="url(#d)"/><g id="change2_2"><path d="M617.1,144c34.6-20,62.7-3.9,62.8,35.8l0.2,67.4c0.1,39.7-27.9,85.9-62.4,108.1 c-7.2,4.6-13.5,8.5-19.2,11.8c-62,35.8-42.4-1.6-99.7,31.5c-52.3,30.2-45,51.9-102.8,85.3c-4.8,2.8-10.1,5.6-15.9,8.6 c-34.5,17.6-62.7,3.9-62.8-35.8l-0.2-67.4c-0.1-39.7,27.8-88.1,62.4-108.1L617.1,144z" fill="#2B063C"/></g><linearGradient gradientTransform="matrix(1 0 0 -1 0 500)" gradientUnits="userSpaceOnUse" id="e" x1="493.559" x2="504.883" xlink:actuate="onLoad" xlink:show="other" xlink:type="simple" xmlns:xlink="http://www.w3.org/1999/xlink" y1="336.014" y2="-10.577"><stop offset=".047" stop-color="#270083"/><stop offset=".066" stop-color="#240482"/><stop offset=".222" stop-color="#101e7e"/><stop offset=".362" stop-color="#042d7c"/><stop offset=".472" stop-color="#00337b"/><stop offset="1" stop-color="#00b0f4"/></linearGradient><path d="M352.3,491.1c-7.8,0-14-2.7-18.4-7.9 c-5-5.9-7.7-15.1-7.7-26.6l-0.2-67.4c-0.1-17.7,6-37.9,17-57s25.6-34.5,41-43.4l237.6-137.2c8.4-4.8,16.6-7.4,23.6-7.4 c16.1,0,25.7,13.3,25.8,35.5l0.2,67.4c0,17.4-6,37.3-17,56.1c-10.9,18.5-25.5,34.3-41.3,44.5c-6.8,4.4-13.1,8.3-18.8,11.5 C570,373.1,559.6,375,552.7,375c-1.9,0-3.7-0.1-5.7-0.3c-2.2-0.2-4.4-0.3-6.9-0.3c-9.1,0-21,2-45.7,16.3 c-26.7,15.4-38.9,29.1-50.6,42.2c-12.2,13.7-23.8,26.7-52.2,43.1c-4.8,2.8-10,5.6-15.5,8.4C367.6,488.8,359.4,491.1,352.3,491.1z" fill="url(#e)"/><g><g><g><g id="change2_1"><path d="M449.6,156.9L449.6,156.9c0,0.2-0.1,0.3-0.1,0.5c0,0.1-0.1,0.3-0.1,0.4c-0.1,0.2-0.1,0.4-0.2,0.6v0.1 c-0.1,0.2-0.2,0.4-0.4,0.6c0,0,0,0.1-0.1,0.1c-0.1,0.2-0.3,0.4-0.4,0.5l-0.1,0.1c-0.2,0.2-0.4,0.4-0.5,0.5s-0.3,0.2-0.4,0.3 s-0.2,0.2-0.4,0.3c-0.1,0.1-0.3,0.2-0.5,0.3s-0.3,0.2-0.5,0.3L406,184.6c-0.3,0.2-0.6,0.3-0.9,0.5c-0.1,0-0.2,0.1-0.2,0.1 c-0.3,0.1-0.5,0.2-0.8,0.4H404c-0.3,0.1-0.6,0.2-0.9,0.3c-0.2,0.1-0.4,0.1-0.7,0.2c-0.2,0-0.3,0.1-0.5,0.1 c-0.2,0.1-0.5,0.1-0.7,0.2c-0.2,0-0.3,0.1-0.5,0.1c-0.1,0-0.1,0-0.2,0c-0.3,0-0.6,0.1-0.9,0.1c-0.1,0-0.2,0-0.3,0 c-0.2,0-0.4,0-0.5,0c-0.3,0-0.6,0-0.9,0.1c-0.2,0-0.4,0-0.6,0s-0.5,0-0.7,0s-0.4,0-0.6,0s-0.4,0-0.7,0c-0.2,0-0.4,0-0.6,0 s-0.4,0-0.6-0.1c-0.2,0-0.4-0.1-0.6-0.1s-0.5-0.1-0.7-0.1s-0.4-0.1-0.5-0.1c-0.3-0.1-0.5-0.1-0.8-0.2c-0.2,0-0.3-0.1-0.5-0.1 c-0.1,0-0.2-0.1-0.3-0.1c-0.3-0.1-0.5-0.2-0.8-0.3c-0.1,0-0.2-0.1-0.2-0.1c-0.2-0.1-0.5-0.2-0.7-0.3c-0.1,0-0.2-0.1-0.3-0.1 c-0.3-0.2-0.6-0.3-1-0.5c-1.6-0.9-2.7-2-3.3-3.2c-0.4-0.7-0.5-1.4-0.5-2.2l0,0l0,0v5c0,1.9,1.3,3.9,3.8,5.4 c0.3,0.2,0.6,0.3,1,0.5c0.1,0.1,0.2,0.1,0.3,0.1c0.2,0.1,0.4,0.2,0.6,0.3h0.1c0.1,0,0.1,0.1,0.2,0.1c0.3,0.1,0.5,0.2,0.8,0.3 c0.1,0,0.2,0.1,0.3,0.1c0.1,0,0.1,0,0.2,0.1c0.1,0,0.2,0.1,0.3,0.1c0.3,0.1,0.5,0.1,0.8,0.2c0.1,0,0.1,0,0.2,0.1 c0.1,0,0.2,0,0.3,0.1c0.2,0,0.5,0.1,0.7,0.1c0.1,0,0.2,0,0.3,0c0.1,0,0.2,0,0.3,0c0.2,0,0.4,0.1,0.6,0.1c0.1,0,0.2,0,0.3,0 c0.1,0,0.2,0,0.3,0c0.2,0,0.4,0,0.7,0c0.1,0,0.2,0,0.3,0c0.1,0,0.2,0,0.3,0c0.2,0,0.5,0,0.7,0c0.1,0,0.2,0,0.4,0 c0.1,0,0.1,0,0.2,0c0.3,0,0.6,0,0.9-0.1c0.1,0,0.2,0,0.4,0c0.1,0,0.1,0,0.2,0s0.2,0,0.3,0c0.3,0,0.6-0.1,0.9-0.1 c0.1,0,0.1,0,0.2,0h0.1c0.1,0,0.3-0.1,0.4-0.1c0.2,0,0.5-0.1,0.7-0.2c0.2,0,0.3-0.1,0.5-0.1c0.2-0.1,0.5-0.1,0.7-0.2h0.1 c0.3-0.1,0.5-0.2,0.8-0.3h0.1c0.3-0.1,0.6-0.2,0.8-0.4c0.1,0,0.2-0.1,0.2-0.1c0.3-0.1,0.6-0.3,0.9-0.5l39.9-23.1 c0.1,0,0.1-0.1,0.2-0.1c0.1-0.1,0.2-0.1,0.3-0.2c0.2-0.1,0.3-0.2,0.5-0.3c0.1-0.1,0.2-0.2,0.4-0.3c0.1-0.1,0.3-0.2,0.4-0.3 c0,0,0.1,0,0.1-0.1c0.2-0.2,0.3-0.3,0.5-0.5l0.1-0.1c0.1-0.1,0.2-0.2,0.3-0.3c0.1-0.1,0.1-0.2,0.2-0.2c0,0,0-0.1,0.1-0.1 c0.1-0.1,0.2-0.3,0.3-0.5c0,0,0.1-0.1,0.1-0.2c0,0,0-0.1,0.1-0.1c0.1-0.2,0.2-0.3,0.2-0.5v-0.1c0-0.1,0.1-0.3,0.1-0.4 c0-0.1,0.1-0.2,0.1-0.3v-0.1v-0.1c0-0.2,0-0.4,0.1-0.5v-0.1v-5C449.7,156.4,449.6,156.7,449.6,156.9z" fill="#2B063C"/></g><linearGradient gradientTransform="matrix(1 0 0 -1 0 500)" gradientUnits="userSpaceOnUse" id="f" x1="392.194" x2="449.037" xlink:actuate="onLoad" xlink:show="other" xlink:type="simple" xmlns:xlink="http://www.w3.org/1999/xlink" y1="317.874" y2="351.22"><stop offset="0" stop-color="#5a0288"/><stop offset="1" stop-color="#8831af"/></linearGradient><path d="M445.8,150.9c5.1,2.9,5.1,7.7,0.1,10.6 L406,184.6c-5.1,2.9-13.3,2.9-18.4,0s-5.1-7.7-0.1-10.6l39.9-23.1C432.5,147.9,440.7,147.9,445.8,150.9z" fill="url(#f)"/></g></g><g id="change2_5"><path d="M440.4,154c-3.1-1.8-8-1.8-11,0L393,175.1c-3,1.8-3,4.6,0,6.4c3.1,1.8,8,1.8,11,0l36.4-21.1 C443.5,158.6,443.4,155.8,440.4,154z" fill="#2B063C"/></g></g><g><g><g id="change3_1"><path d="M172.9,374.8c0.1-0.1,0.2-0.1,0.3-0.2l6.3-3.7c-0.1,0.1-0.2,0.1-0.3,0.2h-0.1c-0.1,0-0.2,0.1-0.2,0.1 h-0.1c-0.2,0.1-0.4,0.1-0.6,0.2l0,0c-0.1,0-0.3,0-0.4,0.1h-0.1c-0.1,0-0.2,0-0.3,0s-0.1,0-0.2,0c-0.1,0-0.2,0-0.2,0 c-0.1,0-0.1,0-0.2,0c-0.1,0-0.1,0-0.2,0c-0.1,0-0.1,0-0.2,0c-0.1,0-0.1,0-0.2,0c-0.1,0-0.2,0-0.2,0c-0.1,0-0.1,0-0.2,0 c-0.1,0-0.2,0-0.3-0.1c-0.1,0-0.1,0-0.2,0c-0.1,0-0.2-0.1-0.3-0.1h-0.1c-0.1,0-0.3-0.1-0.4-0.1l0,0c-0.1-0.1-0.3-0.1-0.4-0.2 c0,0-0.1,0-0.1-0.1c-0.1,0-0.2-0.1-0.3-0.1l-0.1-0.1c-0.1-0.1-0.3-0.1-0.4-0.2l-7.9-4.6c-0.3-0.2-0.6-0.4-0.9-0.6c0,0,0,0-0.1,0 c-0.3-0.2-0.5-0.4-0.8-0.6c0,0-0.1,0-0.1-0.1c-0.3-0.2-0.5-0.4-0.8-0.7l-0.1-0.1c-0.3-0.2-0.5-0.5-0.8-0.8c0,0,0,0-0.1-0.1 c-0.3-0.3-0.5-0.6-0.8-0.9l0,0c-0.3-0.3-0.5-0.6-0.7-0.9l0,0c-0.2-0.3-0.4-0.6-0.6-0.9c-0.1-0.2-0.3-0.4-0.4-0.6 c-0.1-0.2-0.2-0.3-0.3-0.5c0-0.1-0.1-0.2-0.1-0.2c-0.2-0.3-0.3-0.6-0.5-0.8V358c-0.2-0.3-0.3-0.7-0.5-1c0,0,0,0,0-0.1 c-0.2-0.3-0.3-0.7-0.4-1c0,0,0,0,0-0.1c-0.1-0.4-0.3-0.7-0.4-1.1c0,0,0,0,0-0.1c-0.1-0.3-0.2-0.7-0.3-1v-0.1 c-0.1-0.4-0.2-0.7-0.2-1.1l0,0c-0.1-0.4-0.1-0.7-0.1-1.1v-0.1c0-0.4,0-0.7,0-1l0.1-49.3c0-0.3,0-0.7,0-1v-0.1 c0-0.3,0.1-0.6,0.1-0.8v-0.1c0.1-0.3,0.1-0.5,0.2-0.8V298c0.1-0.2,0.2-0.4,0.3-0.7c0,0,0,0,0-0.1c0.1-0.2,0.2-0.5,0.4-0.7 c0,0,0-0.1,0.1-0.1c0.1-0.2,0.2-0.3,0.3-0.5c0-0.1,0.1-0.1,0.1-0.2c0.1-0.1,0.2-0.2,0.3-0.3l0.1-0.1c0.2-0.1,0.3-0.3,0.5-0.4 l-6.3,3.7c-0.2,0.1-0.4,0.2-0.5,0.4c-0.1,0-0.1,0.1-0.1,0.1c-0.1,0.1-0.2,0.2-0.3,0.3c0,0.1-0.1,0.1-0.1,0.2 c-0.1,0.1-0.2,0.3-0.3,0.5c0,0,0,0.1-0.1,0.1l0,0c-0.1,0.2-0.2,0.4-0.3,0.6l0,0c0,0,0,0,0,0.1c-0.1,0.1-0.1,0.3-0.2,0.4 c0,0.1,0,0.1-0.1,0.2v0.1v0.1c0,0.1-0.1,0.3-0.1,0.5c0,0.1,0,0.1,0,0.2v0.1c0,0.1,0,0.1,0,0.2s0,0.3-0.1,0.4c0,0.1,0,0.2,0,0.2 v0.1v0.1c0,0.1,0,0.3,0,0.4s0,0.3,0,0.4l0,0l-0.1,49.3c0,0.1,0,0.3,0,0.4s0,0.3,0,0.4s0,0.1,0,0.2v0.1c0,0.1,0,0.1,0,0.2 s0,0.3,0,0.4c0,0.2,0,0.3,0.1,0.5l0,0l0,0c0,0.1,0,0.3,0.1,0.4c0,0.2,0.1,0.3,0.1,0.5c0,0.1,0,0.1,0,0.2v0.1c0,0.1,0,0.1,0,0.2 c0,0.2,0.1,0.3,0.1,0.5c0,0.1,0.1,0.2,0.1,0.4c0,0,0,0,0,0.1c0,0,0,0,0,0.1c0,0.2,0.1,0.3,0.2,0.5c0.1,0.2,0.1,0.3,0.2,0.5v0.1 c0,0,0,0,0,0.1s0.1,0.2,0.1,0.3c0.1,0.1,0.1,0.3,0.2,0.4c0,0.1,0.1,0.2,0.1,0.3c0,0,0,0,0,0.1c0,0,0,0,0,0.1 c0.1,0.1,0.1,0.3,0.2,0.4c0.1,0.2,0.2,0.3,0.2,0.5c0,0,0,0,0,0.1v0.1c0.1,0.1,0.1,0.3,0.2,0.4c0.1,0.2,0.2,0.3,0.3,0.5 c0,0.1,0.1,0.2,0.1,0.2s0,0.1,0.1,0.1c0.1,0.1,0.2,0.3,0.2,0.4c0.1,0.2,0.2,0.4,0.4,0.6c0,0,0,0.1,0.1,0.1 c0.2,0.3,0.4,0.5,0.5,0.8l0,0l0,0c0.1,0.2,0.3,0.4,0.4,0.5c0.1,0.1,0.2,0.3,0.3,0.4l0,0l0,0c0.1,0.1,0.2,0.3,0.3,0.4 s0.2,0.3,0.4,0.4c0,0,0,0,0.1,0.1c0,0,0,0,0.1,0.1s0.2,0.2,0.3,0.3c0.1,0.1,0.3,0.3,0.4,0.4l0.1,0.1l0.1,0.1 c0.1,0.1,0.1,0.1,0.2,0.2c0.1,0.1,0.3,0.2,0.4,0.4c0.1,0,0.1,0.1,0.2,0.1c0,0,0.1,0,0.1,0.1l0.1,0.1c0.1,0.1,0.3,0.2,0.4,0.3 c0.1,0.1,0.2,0.1,0.3,0.2c0,0,0,0,0.1,0c0,0,0,0,0.1,0c0.1,0.1,0.3,0.2,0.4,0.3c0.1,0.1,0.3,0.2,0.4,0.2c0,0,0.1,0,0.1,0.1 l7.9,4.6c0.1,0.1,0.2,0.1,0.3,0.2c0,0,0.1,0,0.1,0.1l0.1,0.1c0,0,0.1,0,0.1,0.1c0.1,0,0.1,0.1,0.2,0.1c0,0,0.1,0,0.1,0.1 c0,0,0,0,0.1,0c0.1,0.1,0.2,0.1,0.4,0.2l0,0l0,0c0.1,0,0.2,0.1,0.4,0.1l0,0h0.1c0.1,0,0.1,0,0.2,0.1h0.1c0.1,0,0.1,0,0.2,0h0.1 h0.1c0.1,0,0.1,0,0.2,0h0.1c0.1,0,0.1,0,0.2,0c0.1,0,0.1,0,0.2,0c0,0,0,0,0.1,0s0.1,0,0.2,0c0.1,0,0.1,0,0.2,0c0,0,0,0,0.1,0h0.1 c0.1,0,0.2,0,0.2,0s0,0,0.1,0h0.1c0.1,0,0.2,0,0.3,0h0.1c0,0,0,0,0.1,0s0.3,0,0.4-0.1l0,0l0,0c0.2,0,0.4-0.1,0.6-0.2 c0,0,0,0,0.1,0l0,0c0.1,0,0.2-0.1,0.2-0.1C172.8,374.8,172.9,374.8,172.9,374.8z" fill="#401952"/></g><g id="change4_1"><path d="M167,299.5c7.1,4.1,12.8,14,12.8,22.2l-0.1,49.3c0,8.2-5.8,11.4-12.9,7.3l-7.9-4.6 c-7.1-4.1-12.8-14-12.8-22.2l0.1-49.3c0-8.1,5.8-11.4,12.9-7.3L167,299.5z M175.9,368.8l0.1-49.3c0-5.7-4-12.7-9-15.6l-7.9-4.6 c-5-2.9-9.1-0.6-9.1,5.2l-0.1,49.3c0,5.7,4,12.7,9,15.6l7.9,4.6C171.8,376.9,175.9,374.6,175.9,368.8" fill="#562C69"/></g><linearGradient gradientTransform="matrix(1 0 0 -1 0 500)" gradientUnits="userSpaceOnUse" id="g" x1="149.923" x2="186.098" xlink:actuate="onLoad" xlink:show="other" xlink:type="simple" xmlns:xlink="http://www.w3.org/1999/xlink" y1="165.55" y2="165.55"><stop offset=".017" stop-color="#545454"/><stop offset=".994" stop-color="#e6e6e6"/></linearGradient><path d="M186.1,317.5v-0.1c0-0.1,0-0.2,0-0.2 c0-0.1,0-0.2,0-0.3c0-0.1,0-0.1,0-0.2s0-0.2,0-0.2c0-0.1,0-0.1,0-0.2s0-0.2,0-0.4c0-0.1,0-0.1,0-0.2c0,0,0,0,0-0.1 c0-0.2-0.1-0.4-0.1-0.6l0,0v-0.1c0-0.2-0.1-0.4-0.1-0.5v-0.1c0-0.1,0-0.2-0.1-0.3c0-0.1,0-0.2-0.1-0.3c0-0.1,0-0.1,0-0.2 s0-0.2-0.1-0.3c0-0.1,0-0.1-0.1-0.2c0-0.1,0-0.2-0.1-0.3c0-0.1,0-0.2-0.1-0.3v-0.1c0-0.1-0.1-0.2-0.1-0.4c0-0.1,0-0.2-0.1-0.2 c0,0,0,0,0-0.1c-0.1-0.2-0.1-0.4-0.2-0.7l0,0c0,0,0,0,0-0.1c-0.1-0.2-0.1-0.4-0.2-0.6v-0.1c0-0.1-0.1-0.1-0.1-0.2 s-0.1-0.2-0.1-0.3c0-0.1-0.1-0.1-0.1-0.2s-0.1-0.2-0.1-0.2c0-0.1,0-0.1-0.1-0.2c0-0.1-0.1-0.2-0.2-0.4c0-0.1-0.1-0.1-0.1-0.2 c0,0,0,0,0-0.1c-0.1-0.2-0.2-0.4-0.3-0.6l0,0c0-0.1-0.1-0.1-0.1-0.2c-0.1-0.2-0.1-0.3-0.2-0.5c0,0,0,0,0-0.1 c-0.1-0.1-0.1-0.3-0.2-0.4c-0.1-0.1-0.1-0.2-0.2-0.3c0,0,0,0,0-0.1c-0.2-0.3-0.4-0.7-0.6-1V305c0,0,0-0.1-0.1-0.1 c-0.3-0.5-0.6-0.9-0.8-1.4c0,0,0,0,0-0.1l-0.1-0.1c-0.2-0.4-0.5-0.7-0.7-1l0,0l0,0c-0.2-0.2-0.4-0.5-0.5-0.7l0,0 c-0.1-0.2-0.3-0.3-0.4-0.5l-0.1-0.1l0,0c-0.2-0.2-0.3-0.4-0.5-0.6l0,0c-0.1-0.1-0.1-0.1-0.2-0.2c-0.1-0.1-0.2-0.2-0.3-0.4 c0,0,0,0-0.1-0.1s-0.1-0.2-0.2-0.2c-0.1-0.1-0.2-0.2-0.2-0.3l-0.1-0.1c-0.1-0.1-0.2-0.2-0.2-0.2c-0.1-0.1-0.1-0.1-0.2-0.2 l-0.1-0.1c-0.1-0.1-0.2-0.2-0.3-0.2c-0.1-0.1-0.1-0.1-0.2-0.2l-0.1-0.1c-0.1-0.1-0.2-0.2-0.3-0.2s-0.1-0.1-0.2-0.1 c-0.1,0-0.1-0.1-0.2-0.1c-0.1-0.1-0.2-0.1-0.3-0.2l-0.1-0.1c-0.1-0.1-0.1-0.1-0.2-0.2c-0.1-0.1-0.2-0.1-0.2-0.2l-0.1-0.1 c-0.1-0.1-0.2-0.1-0.3-0.2c-0.1,0-0.1-0.1-0.2-0.1c0,0,0,0-0.1,0c-0.2-0.1-0.4-0.2-0.5-0.4l0,0l0,0c-0.2-0.1-0.3-0.2-0.5-0.3 c0,0-0.1,0-0.1-0.1l-7.9-4.6c-0.1-0.1-0.3-0.2-0.4-0.2c-0.1,0-0.1-0.1-0.2-0.1c-0.1,0-0.1-0.1-0.2-0.1c-0.1,0-0.1-0.1-0.2-0.1 c-0.1,0-0.2-0.1-0.3-0.1s-0.1-0.1-0.2-0.1h-0.1c-0.2-0.1-0.3-0.1-0.5-0.2l0,0l0,0c-0.2-0.1-0.3-0.1-0.5-0.2c0,0,0,0-0.1,0 s-0.1,0-0.2-0.1c-0.1,0-0.2-0.1-0.3-0.1h-0.1c-0.1,0-0.2,0-0.2-0.1c-0.1,0-0.1,0-0.2,0c-0.1,0-0.1,0-0.2,0c-0.1,0-0.2,0-0.2-0.1 h-0.1c-0.1,0-0.1,0-0.2,0c-0.1,0-0.2,0-0.3,0h-0.1c-0.1,0-0.1,0-0.2,0c-0.1,0-0.2,0-0.3,0h-0.1c-0.1,0-0.1,0-0.2,0 c-0.1,0-0.2,0-0.3,0h-0.1h-0.1c-0.1,0-0.3,0-0.4,0h-0.1H159c-0.2,0-0.4,0-0.6,0.1c0,0,0,0-0.1,0l0,0h-0.1c-0.1,0-0.2,0.1-0.4,0.1 c-0.1,0-0.1,0-0.2,0.1c-0.1,0-0.2,0-0.2,0.1c0,0,0,0-0.1,0s-0.2,0.1-0.3,0.1s-0.1,0-0.2,0.1c-0.2,0.1-0.3,0.2-0.5,0.2l-6.3,3.7 c0.2-0.1,0.3-0.2,0.5-0.2c0.1,0,0.1,0,0.2-0.1c0.1,0,0.2-0.1,0.3-0.1s0.2-0.1,0.3-0.1s0.1,0,0.2-0.1c0.1,0,0.2-0.1,0.4-0.1h0.1 c0,0,0,0,0.1,0c0.2,0,0.4-0.1,0.6-0.1c0.1,0,0.1,0,0.2,0c0.1,0,0.3,0,0.4,0c0.1,0,0.2,0,0.2,0c0.1,0,0.2,0,0.3,0s0.2,0,0.3,0 s0.2,0,0.3,0s0.2,0,0.3,0s0.2,0,0.3,0s0.2,0,0.3,0.1c0.1,0,0.2,0,0.2,0.1c0.1,0,0.2,0.1,0.4,0.1c0.1,0,0.2,0,0.2,0.1 c0.1,0,0.3,0.1,0.4,0.1c0.1,0,0.1,0,0.2,0.1c0.2,0.1,0.4,0.1,0.6,0.2l0,0c0.2,0.1,0.4,0.2,0.6,0.3c0.1,0,0.1,0.1,0.2,0.1 c0.1,0.1,0.3,0.1,0.4,0.2c0.1,0,0.1,0.1,0.2,0.1c0.2,0.1,0.4,0.2,0.6,0.3l7.9,4.6c0.2,0.1,0.4,0.2,0.6,0.4l0,0 c0.2,0.1,0.4,0.3,0.6,0.4c0.1,0,0.1,0.1,0.2,0.1c0.1,0.1,0.3,0.2,0.4,0.3c0.1,0.1,0.2,0.1,0.2,0.2c0.1,0.1,0.2,0.2,0.4,0.3 c0.1,0.1,0.2,0.1,0.3,0.2s0.2,0.2,0.3,0.3c0.1,0.1,0.2,0.2,0.3,0.2c0.1,0.1,0.2,0.2,0.3,0.3c0.1,0.1,0.2,0.2,0.3,0.2 c0.1,0.1,0.2,0.2,0.3,0.3c0.1,0.1,0.2,0.2,0.2,0.2c0.1,0.1,0.2,0.2,0.3,0.3c0.1,0.1,0.1,0.2,0.2,0.2c0.1,0.1,0.3,0.3,0.4,0.4 c0.1,0.1,0.1,0.1,0.2,0.2c0.2,0.2,0.4,0.4,0.5,0.6l0.1,0.1c0.1,0.2,0.3,0.4,0.4,0.5c0.2,0.2,0.4,0.5,0.5,0.7l0,0 c0.3,0.3,0.5,0.7,0.7,1c0,0.1,0.1,0.1,0.1,0.2c0.3,0.4,0.6,0.9,0.8,1.4c0,0.1,0.1,0.1,0.1,0.2c0.2,0.3,0.4,0.7,0.6,1 c0.1,0.1,0.1,0.2,0.2,0.4c0.1,0.1,0.1,0.3,0.2,0.4c0.1,0.2,0.2,0.4,0.3,0.5c0,0.1,0.1,0.1,0.1,0.2c0.1,0.2,0.2,0.5,0.3,0.7 c0,0.1,0.1,0.1,0.1,0.2c0.1,0.2,0.2,0.4,0.2,0.5s0.1,0.2,0.1,0.2c0.1,0.2,0.1,0.3,0.2,0.5c0,0.1,0.1,0.1,0.1,0.2 c0.1,0.2,0.2,0.5,0.2,0.7c0,0,0,0,0,0.1c0.1,0.2,0.2,0.5,0.2,0.7c0,0.1,0,0.2,0.1,0.2c0,0.2,0.1,0.3,0.1,0.5 c0,0.1,0.1,0.2,0.1,0.3c0,0.2,0.1,0.3,0.1,0.5c0,0.1,0,0.2,0.1,0.3c0,0.2,0.1,0.3,0.1,0.5c0,0.1,0,0.2,0.1,0.3 c0,0.2,0.1,0.4,0.1,0.6v0.1c0,0.2,0.1,0.5,0.1,0.7c0,0.1,0,0.1,0,0.2c0,0.2,0,0.3,0.1,0.5c0,0.1,0,0.2,0,0.2c0,0.2,0,0.3,0,0.5 c0,0.1,0,0.2,0,0.2c0,0.2,0,0.5,0,0.7l-0.1,49.3c0,0.2,0,0.5,0,0.7c0,0.1,0,0.1,0,0.2c0,0.2,0,0.3,0,0.5c0,0.1,0,0.2,0,0.3 c0,0.1,0,0.3,0,0.4s0,0.2,0,0.3c0,0.1,0,0.2-0.1,0.3c0,0.1,0,0.2-0.1,0.3c0,0.1,0,0.2-0.1,0.3c0,0.1-0.1,0.2-0.1,0.4 c0,0.1-0.1,0.2-0.1,0.3c0,0.1-0.1,0.3-0.1,0.4s-0.1,0.1-0.1,0.2c-0.1,0.2-0.2,0.4-0.3,0.7c-0.1,0.2-0.2,0.3-0.2,0.5l0,0 c-0.1,0.2-0.2,0.3-0.3,0.4c-0.1,0.2-0.3,0.4-0.4,0.6l-0.1,0.1c-0.1,0.2-0.3,0.3-0.4,0.5l0,0c-0.2,0.2-0.3,0.3-0.5,0.4l-0.1,0.1 c-0.2,0.1-0.4,0.3-0.6,0.4l6.3-3.7c0.2-0.1,0.4-0.2,0.6-0.4l0.1-0.1c0.2-0.1,0.4-0.3,0.5-0.4l0,0c0.2-0.2,0.3-0.3,0.4-0.5 l0.1-0.1c0.1-0.2,0.3-0.4,0.4-0.6l0,0c0.1-0.1,0.2-0.3,0.3-0.4l0,0c0.1-0.1,0.2-0.3,0.2-0.4l0,0c0.1-0.2,0.2-0.4,0.3-0.7 c0,0,0,0,0-0.1s0-0.1,0.1-0.2c0-0.1,0.1-0.3,0.1-0.4v-0.1c0-0.1,0-0.1,0-0.2s0.1-0.2,0.1-0.4v-0.1c0-0.1,0-0.1,0-0.2 s0-0.2,0.1-0.3c0-0.1,0-0.1,0-0.2s0-0.1,0-0.2s0-0.2,0-0.3v-0.1c0-0.1,0-0.2,0-0.2c0-0.1,0-0.2,0-0.3v-0.1c0-0.1,0-0.2,0-0.4 c0-0.1,0-0.1,0-0.2l0,0c0-0.2,0-0.4,0-0.6l0,0l0.1-49.3C186.1,317.9,186.1,317.7,186.1,317.5z" fill="url(#g)"/></g></g><g id="change2_4"><path d="M48.4,240.6c-9.6-5.6-17.8-11.8-24.3-18.4c-1.4,0.5-2.9,0.9-4.3,1.3c6.7,6.9,15.1,13.3,25.2,19.1 l99.3,57.3c3,1.7,5.9,2.7,9.4,1.7c1.2-0.3,2.8-2.7,3-3.3c-0.1,0-0.2-0.1-0.2-0.1c-4.3,1.6-5.6,1.4-8.7-0.3L48.4,240.6z" fill="#2B063C"/></g><g id="change2_3"><path d="M209.7,394.8c2.8,0,4.7-3.1,4.8-5.6c0.3-4.8,0-8.3,0-12.5c0-5.8,0-11.6,0-17.3c0-5.1,0-10.2,0-15.4 c0-2,0.2-4.2,0-6.3c-0.1-0.7-0.2-1.3-0.4-1.9c-1.1-3.2-4-4.5-6.7-6.1c-3-1.7-6-3.4-8.9-5.2c-3.6-2.1-7.2-4.2-10.8-6.3 c-3.1-1.8-6.3-3.6-9.4-5.4c-0.9-0.5-1.8-1.1-2.7-1.6c-1-0.6-2-0.9-3.3-2.5c-0.1-0.1-0.6-0.7-0.7-0.7c-1.1-0.3-1.8,4-2.9,4.7 L209.7,394.8z" fill="#2B063C"/></g><g><linearGradient gradientTransform="matrix(1 0 0 -1 0 500)" gradientUnits="userSpaceOnUse" id="h" x1="211.5" x2="166.107" xlink:actuate="onLoad" xlink:show="other" xlink:type="simple" xmlns:xlink="http://www.w3.org/1999/xlink" y1="148.768" y2="148.768"><stop offset="0" stop-color="#36035a"/><stop offset=".195" stop-color="#3b065c"/><stop offset=".431" stop-color="#4a1062"/><stop offset=".688" stop-color="#62216c"/><stop offset=".958" stop-color="#84377a"/><stop offset="1" stop-color="#8a3b7c"/></linearGradient><path d="M208,333.7c1.8,1.3,3.5,3.8,3.5,6l-0.1,52.6 c0,2.2-1.6,3.1-3.5,2l-37.6-21.7c-1.9-1.1-3.5-3.8-3.5-6c0,0-1.8-42.5,0.4-52.1c0.6-2.5,3.7-7.6,4.3-6.7c0.2,0.4,0.2,0.4,0.2,0.7 C171.8,315.4,198.6,327.2,208,333.7z" fill="url(#h)"/></g><linearGradient gradientTransform="matrix(1 0 0 -1 0 500)" gradientUnits="userSpaceOnUse" id="i" x1="0" x2="158" xlink:actuate="onLoad" xlink:show="other" xlink:type="simple" xmlns:xlink="http://www.w3.org/1999/xlink" y1="228.146" y2="228.146"><stop offset="0" stop-color="#36035a"/><stop offset=".195" stop-color="#3b065c"/><stop offset=".431" stop-color="#4a1062"/><stop offset=".688" stop-color="#62216c"/><stop offset=".958" stop-color="#84377a"/><stop offset="1" stop-color="#8a3b7c"/></linearGradient><path d="M144.2,299.9l-99.3-57.3 C15,225.3,0.1,202.7,0.2,180.1L0,240.8c-0.1,22.6,14.9,45.3,44.7,62.5l99.3,57.3c2.3,1.3,4.4,2,7,2.9c1.5,0.5,7-0.6,7-5.9 l-1.4-59.3C151.7,303.3,147.3,301.7,144.2,299.9z" fill="url(#i)"/></g></svg>