<?xml version="1.0" encoding="UTF-8"?><svg xmlns="http://www.w3.org/2000/svg" xmlns:xlink="http://www.w3.org/1999/xlink" height="269.9" preserveAspectRatio="xMidYMid meet" version="1.0" viewBox="77.6 77.6 269.9 269.9" width="269.9" zoomAndPan="magnify"><g><g><g id="change1_2"><path d="M212.601,343.059c-71.936,0-130.46-58.523-130.46-130.458c0-71.936,58.524-130.46,130.46-130.46 c71.935,0,130.458,58.524,130.458,130.46C343.059,284.536,284.536,343.059,212.601,343.059z" fill="#FFE100"/></g><g id="change2_6"><path d="M212.601,86.641c69.563,0,125.958,56.395,125.958,125.96c0,69.563-56.395,125.958-125.958,125.958 c-69.565,0-125.96-56.395-125.96-125.958C86.641,143.036,143.036,86.641,212.601,86.641 M212.601,77.641 c-36.049,0-69.94,14.038-95.431,39.529s-39.529,59.382-39.529,95.431c0,36.048,14.039,69.939,39.529,95.429 c25.491,25.491,59.382,39.529,95.431,39.529c36.048,0,69.939-14.038,95.429-39.529c25.491-25.49,39.529-59.381,39.529-95.429 c0-36.049-14.038-69.94-39.529-95.431C282.54,91.68,248.649,77.641,212.601,77.641L212.601,77.641z" fill="#5158A3"/></g></g><g id="change3_2"><circle cx="212.6" cy="212.601" fill="#F59D16" r="110.099"/></g><g><g id="change1_1"><path d="M212.601,306.256c-51.642,0-93.656-42.014-93.656-93.655c0-51.642,42.014-93.656,93.656-93.656 c51.642,0,93.655,42.014,93.655,93.656C306.256,264.242,264.242,306.256,212.601,306.256z" fill="#FFE100"/></g><g><g id="change2_2"><path d="M212.601,123.444c49.239,0,89.155,39.917,89.155,89.156c0,49.239-39.917,89.155-89.155,89.155 c-49.24,0-89.156-39.917-89.156-89.155C123.444,163.361,163.361,123.444,212.601,123.444 M212.601,114.444 c-54.124,0-98.156,44.033-98.156,98.156c0,54.123,44.033,98.155,98.156,98.155c54.123,0,98.155-44.032,98.155-98.155 C310.756,158.477,266.724,114.444,212.601,114.444L212.601,114.444z" fill="#5158A3"/></g></g></g><g id="change3_1"><path d="M212.601,123.444c-3.961,0-7.854,0.285-11.678,0.786c43.716,5.724,77.477,43.092,77.477,88.371 c0,45.278-33.761,82.646-77.477,88.37c3.825,0.501,7.717,0.786,11.678,0.786c49.239,0,89.155-39.917,89.155-89.155 C301.756,163.361,261.839,123.444,212.601,123.444z" fill="#F59D16"/></g><g id="change2_5"><path d="M227.367,149.93c2.485,0,4.5,2.015,4.5,4.5v8.398c11.722,3.2,20.367,13.936,20.367,26.659 c0,8.811-4.149,16.666-10.591,21.729c8.857,4.609,14.924,13.87,14.924,24.526c0,14.247-10.837,26.007-24.7,27.479v7.55 c0,2.485-2.015,4.5-4.5,4.5s-4.5-2.015-4.5-4.5v-7.393H205.93v7.393c0,2.485-2.015,4.5-4.5,4.5s-4.5-2.015-4.5-4.5v-7.393h-2.622 c-0.059,0-0.116-0.008-0.174-0.009h-16.5c-2.485,0-4.5-2.015-4.5-4.5s2.015-4.5,4.5-4.5h7.675v-37.263 c0-1.638,0.444-3.169,1.209-4.492c-0.765-1.323-1.209-2.854-1.209-4.492v-37.271c0-0.007,0.001-0.013,0.001-0.02h-7.66 c-2.485,0-4.5-2.015-4.5-4.5s2.015-4.5,4.5-4.5h19.281v-7.401c0-2.485,2.015-4.5,4.5-4.5s4.5,2.015,4.5,4.5v7.401h6.343 c0.066,0,0.128,0.017,0.194,0.02h10.401v-7.421C222.867,151.944,224.882,149.93,227.367,149.93 M194.308,208.106h30.601 c10.147-0.167,18.326-8.433,18.326-18.62c0-10.292-8.344-18.636-18.636-18.636h-30.291V208.106 M194.308,254.369h17.949 c0.03,0,0.058,0.008,0.087,0.009h16.588c10.292,0,18.636-8.344,18.636-18.636c0-10.293-8.344-18.636-18.636-18.636h-3.717 c-0.206,0.004-0.41,0.016-0.616,0.016h-30.291V254.369 M227.367,140.93c-6.141,0-11.338,4.122-12.969,9.745 c-1.631-5.623-6.828-9.745-12.969-9.745c-6.903,0-12.613,5.208-13.406,11.901h-10.375c-7.444,0-13.5,6.056-13.5,13.5 c0,6.991,5.342,12.759,12.159,13.434v28.357c0,1.519,0.194,3.029,0.573,4.492c-0.379,1.463-0.573,2.973-0.573,4.492v28.327 c-6.824,0.668-12.175,6.438-12.175,13.436c0,7.444,6.056,13.5,13.5,13.5h10.391c0.793,6.693,6.502,11.901,13.406,11.901 c6.141,0,11.338-4.122,12.969-9.745c1.631,5.623,6.828,9.745,12.969,9.745c7.444,0,13.5-6.056,13.5-13.5v-0.376 c14.524-4.967,24.7-18.68,24.7-34.652c0-9.829-3.895-19.016-10.596-25.767c4.051-5.974,6.263-13.059,6.263-20.489 c0-14.067-8.1-26.721-20.367-32.817v-2.239C240.867,146.986,234.811,140.93,227.367,140.93L227.367,140.93z M203.308,179.851 h21.291c5.313,0,9.636,4.323,9.636,9.636c0,5.199-4.216,9.501-9.412,9.62h-21.515V179.851L203.308,179.851z M225.342,226.106 h3.589c5.313,0,9.636,4.323,9.636,9.636s-4.323,9.636-9.636,9.636h-16.271c-0.134-0.006-0.269-0.009-0.404-0.009h-8.949v-19.247 h21.291c0.231,0,0.46-0.006,0.689-0.014L225.342,226.106L225.342,226.106z" fill="#5158A3"/></g></g><g id="change4_1"><circle cx="301.756" cy="212.6" fill="#FFF" r="16"/></g><g id="change4_2"><circle cx="123.444" cy="212.6" fill="#FFF" r="16"/></g><g id="change2_3"><path d="M301.756,217.101h-50.417c-2.485,0-4.5-2.015-4.5-4.5s2.015-4.5,4.5-4.5h50.417c2.485,0,4.5,2.015,4.5,4.5 S304.241,217.101,301.756,217.101z" fill="#5158A3"/></g><g id="change2_7"><path d="M173.861,217.101h-50.417c-2.485,0-4.5-2.015-4.5-4.5s2.015-4.5,4.5-4.5h50.417c2.485,0,4.5,2.015,4.5,4.5 S176.347,217.101,173.861,217.101z" fill="#5158A3"/></g><g id="change2_1"><circle cx="301.756" cy="212.6" fill="#5158A3" r="6.202"/></g><g id="change2_4"><circle cx="123.444" cy="212.6" fill="#5158A3" r="6.202"/></g></svg>